<svg width="180" height="180" viewBox="0 0 180 180" fill="none" xmlns="http://www.w3.org/2000/svg">
<g clip-path="url(#clip0_2_2)">
<rect width="180" height="180" rx="45" fill="#1D4ED8"/>
<path d="M71.056 69.128C66.6187 78.4293 64.4 87.0053 64.4 94.856C64.4 101.512 65.936 106.504 69.008 109.832C72.1653 113.16 77.4133 114.824 84.752 114.824H95.76C101.221 114.824 105.317 114.355 108.048 113.416C110.779 112.477 112.613 110.856 113.552 108.552C114.576 106.248 115.088 102.835 115.088 98.312V58.12H131.344V98.312C131.344 109.064 128.443 117.555 122.64 123.784C116.923 130.099 107.963 133.256 95.76 133.256H84.752C77.072 133.256 70.5013 131.549 65.04 128.136C59.5787 124.723 55.44 120.115 52.624 114.312C49.808 108.509 48.4 102.024 48.4 94.856C48.4 89.6507 49.296 84.104 51.088 78.216C52.88 72.328 55.0133 66.9093 57.488 61.96L71.056 69.128ZM84.752 46.344H101.776V62.984H84.752V46.344Z" fill="#F5F5F5"/>
</g>
<defs>
<clipPath id="clip0_2_2">
<rect width="180" height="180" rx="45" fill="white"/>
</clipPath>
</defs>
</svg>
